# xmcd CD database file
#
# Track frame offsets:
#	150
#	12232
#	31235
#	47271
#	60264
#	80514
#	102860
#	118722
#	127882
#	150560
#	165321
#
# Disc length: 2389 seconds
#
# Revision: 2
# Processed by: cddbd v1.5.1PL0 Copyright (c) Steve Scherf et al.
# Submitted via: CDex 1.51
#
DISCID=7009530b
DTITLE=Buddy Badinski with Soul Expedition - Odyssey across the Blues
DYEAR=2005
DGENRE=Blues
TTITLE0=01 - Old folks talk
TTITLE1=02 - Hey Bluesman
TTITLE2=03 - Good kind of mind
TTITLE3=04 - Up and down
TTITLE4=05 - Don't know
TTITLE5=06 - Statesboro Blues
TTITLE6=07 - Back in the city
TTITLE7=08 - Trnava Rag
TTITLE8=09 - Lowland Blues
TTITLE9=10 - Hey Marlene
TTITLE10=11 - Back on the road
EXTD=YEAR: 2005
EXTT0=
EXTT1=
EXTT2=
EXTT3=
EXTT4=
EXTT5=
EXTT6=
EXTT7=
EXTT8=
EXTT9=
EXTT10=
PLAYORDER=
